<svg xmlns="http://www.w3.org/2000/svg" width="64" height="64" fill="none" viewBox="0 0 64 64">
  <defs>
    <linearGradient id="favicon-bg" x1="10" x2="54" y1="8" y2="56" gradientUnits="userSpaceOnUse">
      <stop stop-color="#0c1428"/>
      <stop offset="1" stop-color="#090b16"/>
    </linearGradient>
    <linearGradient id="favicon-rim" x1="32" x2="32" y1="10" y2="18" gradientUnits="userSpaceOnUse">
      <stop stop-color="#eff8ff"/>
      <stop offset="1" stop-color="#90b8ff"/>
    </linearGradient>
    <linearGradient id="favicon-glass" x1="32" x2="32" y1="16" y2="56" gradientUnits="userSpaceOnUse">
      <stop stop-color="#ffffff" stop-opacity=".16"/>
      <stop offset="1" stop-color="#c9ddff" stop-opacity=".06"/>
    </linearGradient>
    <clipPath id="favicon-liquid-clip">
      <path d="M23 19h18v24.8c0 4.53-3.67 8.2-8.2 8.2h-1.6c-4.53 0-8.2-3.67-8.2-8.2V19Z"/>
    </clipPath>
  </defs>

  <rect width="56" height="56" x="4" y="4" fill="url(#favicon-bg)" rx="16"/>

  <path
    fill="url(#favicon-glass)"
    stroke="#8eaef0"
    stroke-width="3"
    d="M20 16h24v27.8C44 50.54 38.54 56 31.8 56h-.6C24.46 56 19 50.54 19 43.8V16Z"
  />
  <rect width="32" height="8" x="16" y="10" fill="url(#favicon-rim)" rx="4"/>
  <rect width="26" height="2.2" x="19" y="11.6" fill="#ffffff" opacity=".52" rx="1.1"/>

  <g clip-path="url(#favicon-liquid-clip)">
    <rect width="18" height="34" x="23" y="20" fill="#4aa8ff"/>
    <rect width="14" height="1.8" x="25" y="21.8" fill="#ffffff" opacity=".34" rx=".9"/>
    <rect width="3.2" height="23" x="25.4" y="20.8" fill="#ffffff" opacity=".24" rx="1.6"/>
  </g>

  <path
    stroke="#ffffff"
    stroke-linecap="round"
    stroke-width="3"
    d="M26 20.5v20.5"
    opacity=".52"
  />
</svg>
